<svg xmlns="http://www.w3.org/2000/svg" viewBox="0 0 345.87 73.85"><defs><style>.cls-1{fill:#231f20;}.cls-2{fill:#96cb5d;}</style></defs><title>todo-logo</title><g id="Layer_2" data-name="Layer 2"><g id="Layer_1-2" data-name="Layer 1"><rect class="cls-1" x="211.28" width="8.5" height="73.85"/><rect class="cls-1" x="139.94" y="29" width="8.5" height="36.19" transform="translate(191.27 -97.1) rotate(90)"/><path class="cls-1" d="M325.17,31.52l-1.52,1.58-3,3.14A17.35,17.35,0,0,1,326,43.09l3.59-3.73,1.2-1.25A23.55,23.55,0,0,0,325.17,31.52Zm-27.31,3.22-.55-.59-.21-.21a2.06,2.06,0,0,0-3,0l-3,3a2.3,2.3,0,0,0-.64,1.49,2.26,2.26,0,0,0,.64,1.49l.42.64,1.29,1.39L294,43.2a17.39,17.39,0,0,1,5.29-6.9ZM310,26.07a23.72,23.72,0,0,0-13.64,4.3,5.08,5.08,0,0,1,2.85,1.45l.21.22,2.43,2.6a17.27,17.27,0,0,1,16.19,0l4.66-4.84A23.56,23.56,0,0,0,310,26.07ZM332.14,41,327,46.33A17.36,17.36,0,1,1,292.66,50a17.86,17.86,0,0,1,.34-3.45l-3.81-4.11-.43-.65a4.82,4.82,0,0,1-.73-1.14A23.68,23.68,0,0,0,286.12,50a23.89,23.89,0,0,0,47.78,0A23.53,23.53,0,0,0,332.14,41Z"/><path class="cls-1" d="M241.11,34.74l-.55-.59-.21-.21a2.06,2.06,0,0,0-3,0l-3,3a2.3,2.3,0,0,0-.64,1.49,2.26,2.26,0,0,0,.64,1.49l.42.64,1.29,1.39.88,1a17.39,17.39,0,0,1,5.4-6.78Zm11.71-8.67a23.54,23.54,0,0,0-13.54,4.26,5.06,5.06,0,0,1,3.19,1.49l.21.22L245,34.49a17.27,17.27,0,0,1,16.18.25l4.65-4.82A23.65,23.65,0,0,0,252.82,26.07Zm15.4,5.66L266.9,33.1l-3.22,3.34a17.25,17.25,0,0,1,5.2,7l3.91-4.06.93-1A23.48,23.48,0,0,0,268.22,31.73Zm6.86,9.58-5.21,5.41a17.36,17.36,0,1,1-34-.6l-3.45-3.72-.43-.65a5.26,5.26,0,0,1-1-1.64A23.66,23.66,0,0,0,228.93,50a23.89,23.89,0,0,0,47.78,0A23.47,23.47,0,0,0,275.08,41.31Z"/><path class="cls-1" d="M211.28,32A23.81,23.81,0,1,0,219.41,50,23.73,23.73,0,0,0,211.28,32Zm0,25.15a17.36,17.36,0,1,1,0-14.46,17.23,17.23,0,0,1,0,14.46Z"/><path class="cls-1" d="M88.32,26.07A23.89,23.89,0,1,0,112.21,50,23.91,23.91,0,0,0,88.32,26.07Zm0,41.24A17.36,17.36,0,1,1,105.67,50,17.37,17.37,0,0,1,88.32,67.31Z"/><path class="cls-1" d="M0,.53V9.27H24.7V73.85h10V9.27h24.7V.53Z"/><path class="cls-2" d="M288.48,23.08,273.72,38.4l-.93,1-3.91,4.06-2,2-12.52,13a2.07,2.07,0,0,1-3,0l-9.25-10L237,42.88l-.88-1-1.29-1.39-.42-.64a2.26,2.26,0,0,1-.64-1.49,2.3,2.3,0,0,1,.64-1.49l3-3a2.06,2.06,0,0,1,3,0l.21.21.55.59,1.27,1.36L246,39.94l6.32,6.78a1,1,0,0,0,1.49,0L262,38.17l1.67-1.73,3.22-3.34,1.32-1.37L282.3,17.12h.22a2.05,2.05,0,0,1,3,0l3,3A2.06,2.06,0,0,1,288.48,23.08Z"/><path class="cls-2" d="M288.48,23.08,273.72,38.4l-.93,1-3.91,4.06-2,2-12.52,13a2.07,2.07,0,0,1-3,0l-9.25-10L237,42.88l-.88-1-1.29-1.39-.42-.64a2.26,2.26,0,0,1-.64-1.49,2.3,2.3,0,0,1,.64-1.49l3-3a2.06,2.06,0,0,1,3,0l.21.21.55.59,1.27,1.36L246,39.94l6.32,6.78a1,1,0,0,0,1.49,0L262,38.17l1.67-1.73,3.22-3.34,1.32-1.37L282.3,17.12h.22a2.05,2.05,0,0,1,3,0l3,3A2.06,2.06,0,0,1,288.48,23.08Z"/><path class="cls-2" d="M345.23,23.08l-14.49,15-1.2,1.25L326,43.09l-2.27,2.35-12.52,13a2.07,2.07,0,0,1-3,0l-9.25-10L294,43.21h0l-1.18-1.27-1.29-1.39-.42-.64a2.26,2.26,0,0,1-.64-1.49,2.3,2.3,0,0,1,.64-1.49l3-3a2.06,2.06,0,0,1,3,0l.21.21.55.59,1.46,1.56,3.39,3.64L309,46.72a1,1,0,0,0,1.49,0l8.24-8.55,1.86-1.93,3-3.14,1.52-1.58L339,17.12h.22a2.05,2.05,0,0,1,3,0l3,3A2.06,2.06,0,0,1,345.23,23.08Z"/><path class="cls-2" d="M345.23,23.08l-14.49,15-1.2,1.25L326,43.09l-2.27,2.35-12.52,13a2.07,2.07,0,0,1-3,0l-9.25-10L294,43.21h0l-1.18-1.27-1.29-1.39-.42-.64a2.26,2.26,0,0,1-.64-1.49,2.3,2.3,0,0,1,.64-1.49l3-3a2.06,2.06,0,0,1,3,0l.21.21.55.59,1.46,1.56,3.39,3.64L309,46.72a1,1,0,0,0,1.49,0l8.24-8.55,1.86-1.93,3-3.14,1.52-1.58L339,17.12h.22a2.05,2.05,0,0,1,3,0l3,3A2.06,2.06,0,0,1,345.23,23.08Z"/></g></g></svg>